<?xml version="1.0" encoding="UTF-8" standalone="no"?>
<svg width="419px" height="358px" viewBox="0 0 419 358" version="1.1" xmlns="http://www.w3.org/2000/svg" xmlns:xlink="http://www.w3.org/1999/xlink">
    <!-- Generator: Sketch 3.8.3 (29802) - http://www.bohemiancoding.com/sketch -->
    <title>logo</title>
    <desc>Created with Sketch.</desc>
    <defs></defs>
    <g id="Page-1" stroke="none" stroke-width="1" fill="none" fill-rule="evenodd">
        <g id="ssh01" transform="translate(-514.000000, -155.000000)">
            <g id="header">
                <g id="logo" transform="translate(408.000000, 158.000000)">
                    <g>
                        <g id="letters" transform="translate(0.000000, 9.578231)" font-family="Yellowtail" fill="#FFFFFF" font-weight="normal">
                            <text id="Stupid" transform="translate(215.769686, 118.684331) rotate(-14.000000) translate(-215.769686, -118.684331) " font-size="111.715116">
                                <tspan x="88.453728" y="156.645782">Stupid</tspan>
                            </text>
                            <text id="Hackthon" transform="translate(333.868523, 195.310182) rotate(-14.000000) translate(-333.868523, -195.310182) " font-size="111.715116">
                                <tspan x="152.085991" y="233.271633">Hackthon</tspan>
                            </text>
                            <text id="SHIT" transform="translate(297.592358, 167.160575) rotate(-14.000000) translate(-297.592358, -167.160575) " font-size="31.9186047">
                                <tspan x="261.668343" y="177.806834">SHIT</tspan>
                            </text>
                            <text id="SLC" transform="translate(320.063123, 263.742513) rotate(-14.000000) translate(-320.063123, -263.742513) " font-size="31.9186047">
                                <tspan x="288.822477" y="274.388771">SLC</tspan>
                            </text>
                            <text id="A" transform="translate(231.488996, 80.159746) rotate(-14.000000) translate(-231.488996, -80.159746) " font-size="31.9186047">
                                <tspan x="222.114464" y="90.8060049">A</tspan>
                            </text>
                        </g>
                        <g id="lines" transform="translate(138.845930, 0.000000)" stroke="#FFFFFF" stroke-width="4" stroke-linecap="square">
                            <path d="M71.0188953,81.414966 L152.012355,0.399092971" id="Line"></path>
                            <path d="M152.411337,45.4965986 L196.698401,1.19727891" id="Line" transform="translate(174.754360, 23.147392) scale(-1, 1) translate(-174.754360, -23.147392) "></path>
                            <path d="M225.026163,122.920635 L274.5,73.4331066" id="Line" transform="translate(249.763081, 98.176871) scale(-1, 1) translate(-249.763081, -98.176871) "></path>
                            <path d="M151.613372,352 L259.154067,246" id="Line"></path>
                            <path d="M87.7761628,351.201814 L150.815407,288.145125" id="Line" transform="translate(119.295785, 319.673469) scale(-1, 1) translate(-119.295785, -319.673469) "></path>
                            <path d="M0,227.482993 L27.130814,200.344671" id="Line" transform="translate(13.565407, 213.913832) scale(-1, 1) translate(-13.565407, -213.913832) "></path>
                        </g>
                    </g>
                </g>
            </g>
        </g>
    </g>
</svg>